<?xml version="1.0" encoding="utf-8"?>
<svg version="1.1" id="Layer_1" xmlns="http://www.w3.org/2000/svg" x="0px" y="0px"
     viewBox="0 0 1024 1024" enable-background="new 0 0 1024 1024" xml:space="preserve">
<rect fill="#122F50" width="1024" height="1024"/>
<g>
	<g fill="#FDFDFE">
		<path d="M79.5,760c0-18.5,0.1-37-0.1-55.5c0-3.6,1-4.3,4.4-4.3c24,0.1,48,0.1,72,0c3.6,0,4.5,1.1,4.3,4.5
			c-0.3,4.1-0.3,8.3,0,12.5c0.2,3.1-0.7,3.9-3.8,3.9c-16-0.2-32,0-48-0.2c-3.5,0-4.5,0.8-4.3,4.4c0.3,7.5,0.4,15,0,22.5
			c-0.2,4,1.2,4.5,4.7,4.5c14-0.2,28,0.1,42-0.2c4-0.1,4.8,1.2,4.5,4.7c-0.3,4-0.3,8,0,12c0.2,3.2-0.9,3.9-3.9,3.8
			c-14.3-0.2-28.6,0.1-43-0.2c-3.6-0.1-4.3,1-4.3,4.4c0.2,12.8-0.1,25.7,0.2,38.5c0.1,4.1-1.2,5-5,4.7c-5.3-0.3-10.7-0.3-16,0
			c-3.2,0.2-3.8-1-3.8-3.9C79.6,797.3,79.5,778.7,79.5,760C79.5,760,79.5,760,79.5,760z"/>
		<path d="M269,804.6c-4.8,12.4-15.5,17.1-26.8,17.5c-9.1,0.3-18.5-3.3-24.1-12.2c-4-6.3-5.7-13.1-5.7-20.3
			c-0.1-17.8,0-35.6-0.1-53.5c0-3.1,0.6-4.4,4-4.2c5.1,0.3,10.3,0.3,15.5,0c3.3-0.2,3.7,1,3.7,3.9c0.1,17.3-0.7,34.6,0.4,51.9
			c0.6,8.7,4.4,13.6,11.2,15c6.7,1.4,13.7-2.6,18-8.7c3.7-5.3,4.3-10.9,4.3-16.9c0.1-13.8,0.1-27.6-0.1-41.5c0-3,0.6-4.1,3.8-3.9
			c5.1,0.3,10.3,0.3,15.5,0c3.2-0.2,3.8,1,3.8,3.9c-0.1,26.8-0.1,53.6,0.1,80.4c0,2.8-0.6,3.8-3.5,3.6c-5.3-0.2-10.7-0.2-16,0
			c-2.2,0.1-3-0.7-2.9-2.9c0.1-3.9,0-7.9,0-11.8C269.8,805,269.4,804.8,269,804.6z"/>
		<path d="M303.2,819.9c8.5-12.4,16.4-24.2,24.5-35.9c5.9-8.7,5.9-8.7-0.2-17.5c-7.8-11.3-15.6-22.6-23.8-34.5
			c8.5,0,16.2,0.1,24-0.1c2.6-0.1,3.3,1.6,4.4,3.3c5.1,7.9,10.2,15.8,15.5,23.9c5.2-8,10.3-15.7,15.2-23.6c1.6-2.6,3.2-3.7,6.3-3.6
			c6.6,0.2,13.2,0.1,20.5,0.1c-9,13.2-17.5,25.8-26.3,38.2c-2,2.9-2,4.8,0,7.7c9.6,13.7,19,27.5,28.9,42c-8.5,0-16.4-0.1-24.3,0
			c-2.2,0-2.7-1.6-3.6-2.9c-5.6-8.3-11.2-16.7-17-25.4c-5.2,7.7-10.5,15.1-15.2,22.9c-2.5,4.2-5.4,5.8-10.3,5.4
			C315.9,819.5,310,819.9,303.2,819.9z"/>
		<path d="M196,760c0,18.5-0.1,36.9,0.1,55.4c0.1,3.9-1,4.8-4.7,4.5c-5-0.3-10-0.2-15,0c-2.4,0.1-3.4-0.4-3.4-3.2
			c0.1-37.9,0.1-75.9,0-113.8c0-2.5,0.8-3.1,3.1-3c5.5,0.2,11,0.2,16.5,0c3-0.1,3.5,1.1,3.4,3.7C196,722.4,196,741.2,196,760z"/>
	</g>
	<g fill="#60D1C6">
		<path d="M503.1,739c-7.6,0-15.3,0-22.9,0c-1.3,0-1.8-0.4-2.3-1.8c-6-14.4-12.3-18.6-27.2-18.3
			c-11.4,0.3-21.3,7.9-25.5,20.3c-4.9,14.5-4.6,29.1,0.9,43.3c6,15.4,22,22.4,37.6,17c7.8-2.7,12.2-8.4,14.2-16
			c0.7-2.9,2-3.6,4.8-3.5c6.2,0.2,12.3,0.3,18.5,0c3.1-0.1,3.3,1.2,2.7,3.5c-5,18.9-15.9,32.6-35.5,36.9
			c-17.7,3.9-35.1,2.9-50.3-8.7c-12.2-9.3-17.2-22.6-20-37.1c-1.6-8.8-1.1-17.6-0.9-26.4c0.7-24.4,21.4-46.2,46-49.3
			c15-1.9,29.2-0.1,42,8.4C495.2,714,502.3,726.6,503.1,739z"/>
		<path d="M630.1,745.8c7.7-13.7,19-17.7,33.1-14.9c12.2,2.4,21.2,12.3,22.7,24.6c2.4,20.6,0.4,41.2,1.1,61.8
			c0.1,1.9-0.5,2.6-2.5,2.6c-6-0.1-12-0.2-18,0c-3,0.1-2.6-1.7-2.6-3.5c0-15.3,0-30.7,0-46c0-2.2,0-4.4-0.4-6.5
			c-2-10.6-6.6-14.4-16.9-14.1c-8.3,0.2-14.4,6.1-15.8,15.1c-1.4,9.6-0.6,19.3-0.8,28.9c-0.1,7.5-0.2,15,0,22.5
			c0.1,2.9-0.8,3.7-3.6,3.6c-5.2-0.2-10.3-0.2-15.5,0c-2.9,0.1-4-0.5-4-3.8c0.1-27,0.1-54,0-81c0-2.8,0.9-3.3,3.4-3.2
			c5,0.2,10,0.3,15,0c3.1-0.2,4.1,0.9,4.1,3.8C629.6,738.8,629.9,741.9,630.1,745.8z"/>
		<path d="M883.9,793c1.3,0,2.7,0.1,4,0c4-0.5,6.4,0.3,8.7,4.6c4.3,8.4,21.1,10.8,28.5,4.9
			c5.4-4.3,4.1-11.7-2.6-14.7c-7.2-3.1-15.1-3.8-22.5-6c-4.1-1.2-8.2-2.5-12.1-4.5c-8.4-4.4-12.8-11.2-12.9-20.8
			c-0.1-9.9,4.7-17.3,12.9-21.4c14.3-7.2,29.4-7.6,44.2-1.1c8.2,3.6,13.1,10.2,16.1,18.5c1.2,3.2,0.9,4.6-2.8,4.3
			c-2.8-0.2-5.7-0.1-8.5,0c-4.8,0.1-9.1,0.6-12.2-5.3c-2.5-4.8-8-6.8-14.3-4.9c-2.2,0.7-4.9-0.6-7.3,0.5c-3.4,1.7-5.6,4.1-5.6,8.1
			c0,3.7,2.2,5.8,5.3,7c8.2,3.3,17.1,3.9,25.4,6.7c2.5,0.8,5,1.6,7.4,2.7c9,3.9,14.6,10.4,15.1,20.4c0.5,10.1-3.8,18-12.4,23.5
			c-5.4,3.5-11.5,5.3-17.7,6c-13.8,1.5-27.2,0.6-38.5-8.8c-5.2-4.3-8.2-9.9-9.3-16.5c-0.4-2.4-0.1-3.4,2.6-3.2
			C878.2,793.2,881,793,883.9,793z"/>
		<path d="M737.4,798.1c6.3-21.2,12.4-41.7,18.3-62.3c0.8-2.9,1.9-4,5-3.9c6.3,0.3,12.6,0.1,19.6,0.1
			c-2.6,7.3-5,14.2-7.4,21.2c-7.3,21-14.7,41.9-21.9,62.9c-1,2.8-2,4-5.1,3.8c-6.3-0.3-12.7-0.2-19,0c-2.1,0-3.3-0.4-4.1-2.6
			c-9.6-27.9-19.4-55.7-29.1-83.6c-0.2-0.5-0.2-1-0.4-1.8c7.2,0,14.3,0.2,21.4-0.1c2.6-0.1,3,1.4,3.5,3.1
			c5.4,18.3,10.9,36.7,16.3,55C735.6,792.5,736.4,795,737.4,798.1z"/>
		<path d="M861.9,813.2c-0.1-17.5,0-35-0.3-52.5c-0.2-16.9-6.6-24.8-23-28.9c-10.7-2.7-21.3-2.5-31.8,1
			c-10.3,3.4-17.3,9.9-20.3,20.5c-0.9,3.2,0,3.6,2.9,3.6c5.3-0.2,10.7,0,16-0.1c1.4,0,2.6,0.3,3.6-1.7c3.9-8,11-10.7,20.4-8.2
			c6.5,1.7,9.9,7.6,9.7,16.1c-0.1,2.5-0.8,2.9-3.1,3.1c-7.8,0.5-15.6,1-23.4,2c-5.3,0.7-11,0.8-15.8,3.2
			c-11.7,6-16.8,20.8-12.1,33.4c5,13.3,19.8,19.6,35.7,15.6c7.4-1.9,13.4-6,19.1-12.6c0.2,3.9,0.5,6.7,0.4,9.4
			c0,1.8,0.4,2.7,2.4,2.7c6.8-0.1,13.6,0,21.2,0C861.5,817.5,861.9,815.3,861.9,813.2z M815.6,804.7c-6.4-1.1-9.8-5.2-9.8-11.1
			c0-6,4.1-10.9,10.7-11.5c5.4-0.5,10.6-1.2,15.9-2.1c6.6-1.1,6.7-0.6,6.6,5.9C840.1,800.1,825.9,806.4,815.6,804.7z"/>
		<path d="M590.8,805.3c0.3-15.6,0.2-31.3,0.1-46.9c-0.1-13.1-6.3-21.4-18.8-25.5c-9.9-3.3-19.9-3.7-30-1.6
			c-15.7,3.2-24.7,11.9-26.5,25.6c0.9,0,1.7,0,2.5,0c5.7,0,11.3,0,17,0c1.5,0,2.4-0.1,3.3-2c3.5-7.6,10.3-10.2,19.7-8
			c6.7,1.6,10,6.7,10.2,15.1c0.1,3.2-0.8,3.9-4,4.2c-10.7,1-21.6,1-32.1,3.8c-12.4,3.3-19.1,11.7-19.2,24.4
			c-0.2,13.1,6.5,22.5,18.9,25.8c14.3,3.7,26.5-0.4,37.3-12c0,3.1,0.2,5.2,0,7.3c-0.3,3.4,0.9,4.6,4.5,4.4c4.8-0.3,9.7-0.3,14.5,0
			c2.7,0.1,3.8-0.6,4-3.4C592.2,812.7,590.8,809.2,590.8,805.3z M568.4,785.2c-0.4,14.2-12,22.9-24.9,19c-5-1.5-8-4.7-8.4-9.8
			c-0.4-4.9,2-8.6,6.5-10.6c8-3.5,16.6-4,25.1-3.8C570.4,780.1,567.3,783.8,568.4,785.2z"/>
	</g>
</g>
<g>
	<path fill="#60D1C6" d="M720.1,166.1c-4.4-1.9-8.2,0.3-11.8,2.2c-12.4,6.4-24.6,13.2-37,19.7c-50,26.3-100.1,52.5-150.1,78.8
		L430.4,366c-46.2,60.2-92.5,120.5-138.7,180.7c-5.7,7.4-11.3,14.9-16.6,22.5c-3.2,4.5-2.9,9.5,0,13c3.2,3.7,8.8,4.9,13.7,2.7
		c0.9-0.4,1.8-0.9,2.6-1.4c10.2-5.7,20.3-11.5,30.5-17.1c56.7-31.2,113.4-62.3,170.2-93.5l94.9-102.9l130.8-181.8
		c2.4-3.2,4.7-6.5,6.6-10C727.2,172.9,725.5,168.5,720.1,166.1z"/>
	<path fill="#60D1C6" d="M510.1,144.3c-3.5-3.3-7.8-2.5-11.8-2l-220.7,32.1c-2.6,3.5-1.1,7.1,1.2,10.1c3.2,4.4,6.7,8.7,10.2,12.9
		l82.9,100.5l89-89.5L510,157C514.5,153.1,514.4,148.4,510.1,144.3z"/>
	<polygon fill="#FDFDFE" points="382.5,308.6 420.8,355.1 511.2,256.8 473.2,217.4 	"/>
	<polygon fill="#FDFDFE" points="596.9,379.9 502,482.8 546.1,531.8 642.2,432.5 	"/>
	<path fill="#60D1C6" d="M747.2,554.2l-94.6-112.1L516.3,584.8c-4.4,3.9-4.3,8.7,0.1,12.7c3.5,3.3,7.8,2.4,11.8,1.8l220.2-35.1
		C751,560.7,749.4,557.2,747.2,554.2z"/>
</g>
</svg>
