<?xml version="1.0" encoding="utf-8"?>
<!-- Generator: Adobe Illustrator 27.0.0, SVG Export Plug-In . SVG Version: 6.00 Build 0)  -->
<svg version="1.1" id="Layer_1" xmlns="http://www.w3.org/2000/svg" xmlns:xlink="http://www.w3.org/1999/xlink" x="0px" y="0px"
	 viewBox="0 0 1024 1024" enable-background="new 0 0 1024 1024" xml:space="preserve">
<g>
	<path fill="#60D1C6" d="M946.7,68.7c-9.2-4.1-17.1,0.6-24.6,4.8c-25.8,13.9-51.2,28.6-77,42.6C741,173.1,636.8,229.8,532.7,286.7
		l-189,214.8C247.5,631.8,151.1,762.3,55,892.7c-11.9,16-23.5,32.3-34.6,48.7c-6.7,9.7-6,20.6,0,28.1c6.7,8,18.3,10.6,28.5,5.8
		c1.9-0.9,3.7-1.9,5.4-3c21.2-12.3,42.3-24.9,63.5-37c118-67.5,236-134.9,354.3-202.4l197.5-222.8l272.3-393.6
		c5-6.9,9.8-14.1,13.7-21.6C961.5,83.5,957.9,73.9,946.7,68.7z"/>
	<path fill="#60D1C6" d="M509.6,21.5c-7.3-7.1-16.2-5.4-24.6-4.3L25.6,86.7c-5.4,7.6-2.3,15.4,2.5,21.9c6.7,9.5,13.9,18.8,21.2,27.9
		l172.6,217.6l185.3-193.8L509.4,49C518.7,40.6,518.5,30.4,509.6,21.5z"/>
	<polygon fill="#FDFDFE" points="244,377.2 323.7,477.9 511.9,265.1 432.8,179.8 	"/>
	<polygon fill="#FDFDFE" points="690.3,531.6 492.7,754.3 584.5,860.4 784.5,645.4 	"/>
	<path fill="#60D1C6" d="M1003.1,908.9L806.2,666.2L522.5,975.1c-9.2,8.4-9,18.8,0.2,27.5c7.3,7.1,16.2,5.2,24.6,3.9l458.4-76
		C1011,923,1007.7,915.4,1003.1,908.9z"/>
	<path fill="#122F50" d="M1015.7,899.3L690.8,507.4l263.7-381.2c4.4-6.1,10.1-14.3,15-23.7c6.1-12.1,5-22,2.9-28.1
		c-2.1-6.2-7.1-14.8-19.4-20.5l-0.2-0.1c-15.7-7-29.1,0.4-37.1,4.8l-0.8,0.4c-14.4,7.7-28.9,15.9-42.9,23.7
		c-11.2,6.3-22.8,12.8-34.2,19c-52,28.5-104.1,56.9-156.2,85.3l-148.3,77.8l-93.5-116.5l80.4-87.5c9.4-8.8,11.6-18.2,11.7-24.6
		c0.2-6.6-1.7-16.6-11.6-26.4l-0.1-0.1c-12.2-12-26.9-10-35.7-8.8L17,71.6L13.1,77C9,82.8,1,98.3,15.6,118.3
		c7.2,10.2,15,20.2,21.7,28.6L323,502.6l0.7-0.8c-45.6,61.8-91.2,123.6-136.9,185.4c-48.1,65.2-96.3,130.4-144.3,195.6
		C28.8,901.4,17.7,917.1,7.7,932c-10.5,15.4-10.2,34.2,0.7,47.9l0.2,0.3c7.5,9,18.5,13.8,29.8,13.8c5.7,0,11.5-1.2,16.9-3.8
		c2.3-1.1,4.6-2.4,7-3.9c8-4.6,15.9-9.3,23.8-13.9c12.9-7.6,26.2-15.4,39.3-22.9c81.4-46.6,162.8-93.1,244.3-139.6l101.9-55.7
		l112.5,130l-72.5,79.3c-9.4,9-11.5,18.5-11.5,25c0,6.7,2,16.6,12,26.1c7.8,7.6,16.5,9.4,24.1,9.4c4.5,0,8.6-0.7,11.9-1.2
		l466.2-77.3l3.8-5.3C1029.7,924,1021.6,907.6,1015.7,899.3z M61.3,126.1c-6.1-7.6-13.1-16.5-19.5-25.5l445.2-67.3l1.4-0.2
		c6.5-0.9,9-1,10.3,0.2c0.8,0.8,1.4,1.5,1.6,2c-0.2,0.3-0.7,0.8-1.3,1.4l-0.6,0.5L396,149L223,329.9L61.3,126.1z M265,378.2
		L432.6,203l57.8,62.4L324.3,453.2L265,378.2z M462.4,719.9c-35.9,20.5-71.8,41-107.7,61.5c-81.5,46.5-162.9,93-244.3,139.6
		c-13.3,7.6-26.7,15.4-39.6,23c-8,4.7-16,9.4-24,14l-0.7,0.4c-1.2,0.8-2.4,1.5-3.5,2c-3.7,1.7-7.9,1.1-10.2-1.5
		c-2.1-2.8-0.7-6,0.9-8.4c9.8-14.6,20.6-29.9,34.1-48.1c48.1-65.2,96.2-130.4,144.4-195.6c48-65,96-130.1,143.9-195l186.7-212.1
		c51.2-28,102.5-56,153.8-84c52.1-28.4,104.2-56.8,156.2-85.3c11.6-6.3,23.2-12.8,34.5-19.2c13.9-7.8,28.2-15.8,42.5-23.5l1-0.5
		c5.7-3.2,8.4-4.4,10.1-3.7c1.2,0.6,1.9,1.1,2.3,1.4c-0.1,0.5-0.3,1.2-0.8,2.2c-3,5.8-6.9,11.8-12.5,19.7l-271.9,393L462.4,719.9z
		 M513.8,754.5l176-198.5l73.6,88.8L584.9,836.6L513.8,754.5z M544.9,990.5l-1.5,0.2c-6.1,1-8.9,1.2-10,0.1l-0.2-0.2
		c-0.9-0.8-1.4-1.5-1.6-1.9c0.2-0.3,0.6-0.8,1.3-1.4l0.5-0.4l272.2-296.3l183.6,226.3L544.9,990.5z"/>
</g>
</svg>
